<svg width="153" height="27" viewBox="0 0 153 27" fill="none" xmlns="http://www.w3.org/2000/svg">
<path d="M4.038 3.266V11.924H14.406V15.038H4.038V26H0.186V0.151998H16.206V3.266H4.038ZM27.1182 17.882C25.6902 17.93 24.4782 18.044 23.4822 18.224C22.4862 18.392 21.6762 18.62 21.0522 18.908C20.4282 19.196 19.9782 19.538 19.7022 19.934C19.4262 20.318 19.2882 20.75 19.2882 21.23C19.2882 21.686 19.3602 22.082 19.5042 22.418C19.6602 22.742 19.8642 23.012 20.1162 23.228C20.3802 23.432 20.6862 23.582 21.0342 23.678C21.3822 23.774 21.7602 23.822 22.1682 23.822C22.7082 23.822 23.2002 23.768 23.6442 23.66C24.1002 23.552 24.5262 23.402 24.9222 23.21C25.3182 23.006 25.6962 22.76 26.0562 22.472C26.4162 22.184 26.7702 21.854 27.1182 21.482V17.882ZM16.8222 10.268C17.8422 9.296 18.9462 8.57 20.1342 8.09C21.3342 7.61 22.6482 7.37 24.0762 7.37C25.1202 7.37 26.0442 7.544 26.8482 7.892C27.6522 8.228 28.3302 8.702 28.8822 9.314C29.4342 9.926 29.8482 10.658 30.1242 11.51C30.4122 12.362 30.5562 13.304 30.5562 14.336V26H28.9902C28.6422 26 28.3782 25.946 28.1982 25.838C28.0182 25.718 27.8742 25.502 27.7662 25.19L27.3882 23.588C26.9202 24.02 26.4582 24.404 26.0022 24.74C25.5462 25.064 25.0662 25.346 24.5622 25.586C24.0702 25.814 23.5422 25.988 22.9782 26.108C22.4142 26.228 21.7902 26.288 21.1062 26.288C20.3862 26.288 19.7082 26.192 19.0722 26C18.4482 25.796 17.9022 25.49 17.4342 25.082C16.9662 24.674 16.5942 24.164 16.3182 23.552C16.0542 22.94 15.9222 22.226 15.9222 21.41C15.9222 20.69 16.1142 20 16.4982 19.34C16.8942 18.668 17.5302 18.068 18.4062 17.54C19.2942 17.012 20.4462 16.58 21.8622 16.244C23.2902 15.908 25.0422 15.716 27.1182 15.668V14.336C27.1182 12.956 26.8242 11.924 26.2362 11.24C25.6482 10.556 24.7842 10.214 23.6442 10.214C22.8762 10.214 22.2282 10.31 21.7002 10.502C21.1842 10.694 20.7342 10.91 20.3502 11.15C19.9782 11.378 19.6482 11.588 19.3602 11.78C19.0842 11.972 18.7962 12.068 18.4962 12.068C18.2562 12.068 18.0462 12.002 17.8662 11.87C17.6982 11.738 17.5602 11.582 17.4522 11.402L16.8222 10.268ZM38.5671 11.222C39.1551 10.022 39.8631 9.08 40.6911 8.396C41.5191 7.712 42.5151 7.37 43.6791 7.37C44.0751 7.37 44.4471 7.418 44.7951 7.514C45.1551 7.598 45.4671 7.73 45.7311 7.91L45.4971 10.556C45.4131 10.88 45.2151 11.042 44.9031 11.042C44.7351 11.042 44.4831 11.012 44.1471 10.952C43.8111 10.88 43.4511 10.844 43.0671 10.844C42.5031 10.844 42.0051 10.928 41.5731 11.096C41.1411 11.252 40.7511 11.492 40.4031 11.816C40.0671 12.128 39.7671 12.518 39.5031 12.986C39.2391 13.442 38.9931 13.964 38.7651 14.552V26H35.2551V7.712H37.2711C37.6551 7.712 37.9131 7.784 38.0451 7.928C38.1891 8.06 38.2911 8.3 38.3511 8.648L38.5671 11.222ZM48.4387 26V7.712H50.5447C51.0367 7.712 51.3427 7.946 51.4627 8.414L51.7147 10.16C52.3867 9.356 53.1307 8.702 53.9467 8.198C54.7747 7.682 55.7407 7.424 56.8447 7.424C58.0567 7.424 59.0407 7.76 59.7967 8.432C60.5527 9.092 61.1047 9.992 61.4527 11.132C61.7167 10.484 62.0587 9.926 62.4787 9.458C62.8987 8.99 63.3667 8.606 63.8827 8.306C64.3987 8.006 64.9447 7.784 65.5207 7.64C66.1087 7.496 66.7027 7.424 67.3027 7.424C68.2747 7.424 69.1387 7.58 69.8947 7.892C70.6627 8.192 71.3107 8.636 71.8387 9.224C72.3667 9.812 72.7687 10.538 73.0447 11.402C73.3207 12.266 73.4587 13.25 73.4587 14.354V26H69.9307V14.354C69.9307 12.986 69.6307 11.954 69.0307 11.258C68.4427 10.562 67.5787 10.214 66.4387 10.214C65.9347 10.214 65.4547 10.304 64.9987 10.484C64.5427 10.652 64.1407 10.91 63.7927 11.258C63.4567 11.606 63.1867 12.038 62.9827 12.554C62.7907 13.07 62.6947 13.67 62.6947 14.354V26H59.1667V14.354C59.1667 12.938 58.8847 11.894 58.3207 11.222C57.7567 10.55 56.9287 10.214 55.8367 10.214C55.0807 10.214 54.3787 10.412 53.7307 10.808C53.0827 11.204 52.4887 11.744 51.9487 12.428V26H48.4387ZM108.018 0.151998L97.5055 26H94.0675L83.5555 0.151998H86.6155C86.9515 0.151998 87.2215 0.235998 87.4255 0.403999C87.6415 0.571998 87.8035 0.787998 87.9115 1.052L94.8955 18.62C95.0635 19.052 95.2255 19.526 95.3815 20.042C95.5495 20.558 95.6995 21.098 95.8315 21.662C95.9515 21.098 96.0835 20.558 96.2275 20.042C96.3715 19.526 96.5275 19.052 96.6955 18.62L103.662 1.052C103.746 0.812 103.896 0.601999 104.112 0.421998C104.34 0.241998 104.616 0.151998 104.94 0.151998H108.018ZM119.896 14.822C119.896 14.126 119.794 13.484 119.59 12.896C119.398 12.308 119.11 11.798 118.726 11.366C118.342 10.934 117.874 10.598 117.322 10.358C116.77 10.118 116.134 9.998 115.414 9.998C113.938 9.998 112.774 10.424 111.922 11.276C111.082 12.128 110.548 13.31 110.32 14.822H119.896ZM122.794 23.39C122.362 23.894 121.864 24.332 121.3 24.704C120.736 25.064 120.136 25.358 119.5 25.586C118.864 25.814 118.204 25.982 117.52 26.09C116.848 26.198 116.182 26.252 115.522 26.252C114.262 26.252 113.092 26.042 112.012 25.622C110.944 25.19 110.014 24.566 109.222 23.75C108.442 22.922 107.83 21.902 107.386 20.69C106.954 19.466 106.738 18.062 106.738 16.478C106.738 15.206 106.936 14.024 107.332 12.932C107.728 11.828 108.292 10.868 109.024 10.052C109.768 9.236 110.674 8.594 111.742 8.126C112.81 7.658 114.01 7.424 115.342 7.424C116.458 7.424 117.484 7.61 118.42 7.982C119.368 8.342 120.184 8.87 120.868 9.566C121.552 10.262 122.086 11.12 122.47 12.14C122.866 13.16 123.064 14.324 123.064 15.632C123.064 16.172 123.004 16.538 122.884 16.73C122.764 16.91 122.542 17 122.218 17H110.23C110.266 18.092 110.422 19.046 110.698 19.862C110.974 20.666 111.352 21.338 111.832 21.878C112.324 22.418 112.906 22.82 113.578 23.084C114.25 23.348 115 23.48 115.828 23.48C116.608 23.48 117.28 23.39 117.844 23.21C118.42 23.03 118.912 22.838 119.32 22.634C119.74 22.418 120.088 22.22 120.364 22.04C120.652 21.86 120.904 21.77 121.12 21.77C121.408 21.77 121.63 21.878 121.786 22.094L122.794 23.39ZM137.619 10.862C137.523 11.018 137.421 11.132 137.313 11.204C137.205 11.264 137.067 11.294 136.899 11.294C136.707 11.294 136.491 11.228 136.251 11.096C136.023 10.964 135.741 10.82 135.405 10.664C135.081 10.508 134.697 10.364 134.253 10.232C133.809 10.1 133.281 10.034 132.669 10.034C132.165 10.034 131.703 10.1 131.283 10.232C130.875 10.352 130.527 10.526 130.239 10.754C129.951 10.97 129.729 11.234 129.573 11.546C129.417 11.846 129.339 12.17 129.339 12.518C129.339 12.974 129.471 13.352 129.735 13.652C130.011 13.952 130.365 14.21 130.797 14.426C131.241 14.642 131.739 14.84 132.291 15.02C132.855 15.188 133.425 15.368 134.001 15.56C134.589 15.752 135.159 15.974 135.711 16.226C136.275 16.466 136.773 16.772 137.205 17.144C137.649 17.504 138.003 17.942 138.267 18.458C138.543 18.974 138.681 19.604 138.681 20.348C138.681 21.2 138.525 21.992 138.213 22.724C137.913 23.444 137.463 24.068 136.863 24.596C136.275 25.124 135.543 25.538 134.667 25.838C133.791 26.138 132.789 26.288 131.661 26.288C130.401 26.288 129.237 26.078 128.169 25.658C127.101 25.238 126.207 24.704 125.487 24.056L126.315 22.706C126.411 22.538 126.531 22.412 126.675 22.328C126.819 22.232 127.011 22.184 127.251 22.184C127.479 22.184 127.713 22.268 127.953 22.436C128.193 22.604 128.481 22.79 128.817 22.994C129.153 23.186 129.561 23.366 130.041 23.534C130.521 23.69 131.121 23.768 131.841 23.768C132.441 23.768 132.963 23.696 133.407 23.552C133.851 23.396 134.217 23.192 134.505 22.94C134.805 22.676 135.027 22.376 135.171 22.04C135.315 21.704 135.387 21.35 135.387 20.978C135.387 20.498 135.249 20.102 134.973 19.79C134.709 19.466 134.355 19.19 133.911 18.962C133.479 18.734 132.981 18.536 132.417 18.368C131.853 18.2 131.277 18.02 130.689 17.828C130.101 17.636 129.525 17.414 128.961 17.162C128.397 16.91 127.893 16.592 127.449 16.208C127.017 15.824 126.663 15.356 126.387 14.804C126.123 14.252 125.991 13.58 125.991 12.788C125.991 12.08 126.135 11.402 126.423 10.754C126.723 10.106 127.149 9.536 127.701 9.044C128.265 8.552 128.955 8.162 129.771 7.874C130.599 7.574 131.541 7.424 132.597 7.424C133.809 7.424 134.901 7.616 135.873 8C136.857 8.384 137.697 8.912 138.393 9.584L137.619 10.862ZM148.206 26.288C146.73 26.288 145.59 25.874 144.786 25.046C143.994 24.218 143.598 23.036 143.598 21.5V10.556H141.474C141.27 10.556 141.096 10.496 140.952 10.376C140.82 10.244 140.754 10.052 140.754 9.8V8.378L143.724 7.964L144.516 2.51C144.564 2.306 144.654 2.15 144.786 2.042C144.93 1.922 145.11 1.862 145.326 1.862H147.108V8H152.292V10.556H147.108V21.266C147.108 21.986 147.282 22.526 147.63 22.886C147.99 23.234 148.446 23.408 148.998 23.408C149.322 23.408 149.598 23.366 149.826 23.282C150.066 23.198 150.27 23.108 150.438 23.012C150.606 22.904 150.75 22.808 150.87 22.724C150.99 22.64 151.098 22.598 151.194 22.598C151.314 22.598 151.404 22.628 151.464 22.688C151.536 22.736 151.608 22.82 151.68 22.94L152.724 24.632C152.148 25.16 151.464 25.568 150.672 25.856C149.88 26.144 149.058 26.288 148.206 26.288Z" fill="white"/>
</svg>
